<svg width="500" height="500" xmlns="http://www.w3.org/2000/svg" xmlns:svg="http://www.w3.org/2000/svg" preserveAspectRatio="xMidYMid meet">
 <metadata>Created by potrace 1.15, written by Peter Selinger 2001-2017</metadata>
 <g class="layer">
  <title>Layer 1</title>
  <g fill="#000000" id="svg_1" transform="translate(0 500) scale(0.1 -0.1)">
   <path d="m2205,4988c-105,-12 -298,-51 -409,-83c-400,-116 -765,-333 -1066,-635c-407,-406 -658,-928 -719,-1492c-14,-125 -14,-431 0,-556c61,-564 312,-1086 719,-1492c406,-407 928,-658 1492,-719c125,-14 431,-14 556,0c564,61 1086,312 1492,719c407,406 658,928 719,1492c16,142 13,444 -4,588c-69,561 -312,1056 -715,1460c-405,406 -928,658 -1492,719c-115,13 -459,12 -573,-1zm964,-782c94,-33 143,-62 207,-123c122,-116 216,-298 243,-473c35,-217 -29,-419 -196,-616c-24,-28 -43,-53 -43,-55c0,-2 71,-4 158,-4c154,0 159,-1 239,-33c129,-52 243,-148 310,-262c22,-37 113,-251 131,-310c40,-126 49,-286 23,-416c-33,-166 -148,-319 -331,-443c-94,-63 -148,-87 -720,-321c-151,-62 -378,-155 -504,-206l-228,-94l5,358c4,196 6,489 7,650c0,160 3,292 8,292c4,0 68,-145 142,-321c74,-176 138,-323 143,-325c4,-3 78,24 165,59c86,36 247,102 357,147c110,46 214,89 230,97c144,72 204,227 150,385c-81,235 -202,352 -380,365c-100,8 -188,-10 -338,-70c-76,-30 -131,-47 -136,-41c-7,8 -125,283 -133,310c-2,6 35,40 82,74c163,122 255,227 307,352c22,53 27,79 27,163c1,113 -1,126 -38,210c-48,107 -114,154 -218,155c-46,0 -84,-11 -202,-58l-146,-59l0,263c1,190 4,265 13,272c14,12 174,66 227,78c19,4 42,9 50,12c110,30 286,24 389,-12zm-914,-243c-2,-32 -6,-294 -10,-583c-3,-289 -8,-570 -10,-625c-2,-55 -7,-305 -11,-555c-4,-250 -10,-597 -13,-770l-6,-315l-180,-72c-99,-40 -203,-81 -230,-91l-50,-18l-255,274c-140,151 -282,304 -315,340c-33,37 -170,185 -304,331c-205,221 -242,265 -229,275c8,6 57,26 109,45c52,18 156,58 232,89l138,55l63,-69c83,-92 502,-560 543,-607c18,-20 35,-37 39,-37c6,0 -4,1243 -11,1370c-9,153 -9,810 0,818c6,5 93,42 195,82c102,41 208,84 235,96c73,33 75,33 70,-33z" fill="#bae6e7" id="svg_2"/>
  </g>
 </g>
</svg>